<svg width="34" height="35" viewBox="0 0 34 35" fill="none" xmlns="http://www.w3.org/2000/svg">
<path fill-rule="evenodd" clip-rule="evenodd" d="M17.3537 5.8125C12.0521 5.8125 7.75439 10.11 7.75439 15.4131C7.75439 18.8181 9.78757 22.2804 12.1773 24.9709C13.3563 26.2985 14.5816 27.3916 15.5996 28.1443C16.1097 28.5215 16.5519 28.8015 16.8972 28.9818C17.163 29.1205 17.3072 29.1657 17.3537 29.1804C17.4 29.1657 17.5444 29.1205 17.81 28.9818C18.1554 28.8015 18.5975 28.5215 19.1078 28.1443C20.1257 27.3916 21.351 26.2985 22.53 24.9709C24.9197 22.2804 26.9529 18.8181 26.9529 15.4131C26.9529 10.11 22.6551 5.8125 17.3537 5.8125ZM5.62939 15.4131C5.62939 8.9366 10.8783 3.6875 17.3537 3.6875C23.829 3.6875 29.0779 8.9366 29.0779 15.4131C29.0779 19.5948 26.6334 23.5509 24.1188 26.3821C22.8458 27.8155 21.5123 29.0091 20.3712 29.8529C19.8018 30.2739 19.2643 30.6197 18.7933 30.8655C18.3738 31.0846 17.8467 31.3125 17.3537 31.3125C16.8607 31.3125 16.3335 31.0846 15.9139 30.8655C15.4429 30.6197 14.9055 30.2739 14.3362 29.8529C13.1951 29.0091 11.8615 27.8155 10.5885 26.3821C8.0739 23.5509 5.62939 19.5948 5.62939 15.4131ZM12.7367 15.3233C12.7367 12.7733 14.8033 10.7073 17.354 10.7073C19.9035 10.7073 21.9699 12.7736 21.9699 15.3233C21.9699 17.8723 19.9041 19.9406 17.354 19.9406C14.8027 19.9406 12.7367 17.8726 12.7367 15.3233ZM17.354 12.8323C15.9764 12.8323 14.8616 13.9475 14.8616 15.3233C14.8616 16.6994 15.9768 17.8156 17.354 17.8156C18.7294 17.8156 19.8449 16.6997 19.8449 15.3233C19.8449 13.9472 18.73 12.8323 17.354 12.8323Z" fill="#00A8FE"/>
</svg>
