<svg width="28" height="30" viewBox="0 0 28 30" fill="none" xmlns="http://www.w3.org/2000/svg">
<path fill-rule="evenodd" clip-rule="evenodd" d="M19.348 11.2256L13.4977 17.5634L10.0146 13.7861L11.2669 12.4323L13.4984 14.8522L18.0963 9.87109L19.348 11.2256Z" fill="#049AEE"/>
<path fill-rule="evenodd" clip-rule="evenodd" d="M3.79248 3.71484H24.7925V15.6788C24.7925 20.1035 22.1351 23.0759 19.6195 24.891C18.3562 25.8027 17.0986 26.4464 16.1596 26.8622C15.6889 27.0706 15.2949 27.2232 15.0157 27.3245C14.876 27.3753 14.7649 27.4133 14.6869 27.439C14.6479 27.452 14.6174 27.4619 14.5956 27.4688L14.5695 27.4769L14.5617 27.4793L14.559 27.4802C14.5586 27.4803 14.5573 27.4807 14.2924 26.6044C14.0277 27.4807 14.0273 27.4805 14.0269 27.4804L14.0233 27.4793L14.0154 27.4769L13.9894 27.4688C13.9676 27.4619 13.9369 27.452 13.8979 27.439C13.82 27.4133 13.7088 27.3753 13.5692 27.3245C13.29 27.2232 12.896 27.0706 12.4252 26.8622C11.4863 26.4464 10.2288 25.8027 8.96535 24.891C6.44971 23.0759 3.79248 20.1035 3.79248 15.6788V3.71484ZM14.2924 26.6044L14.0269 27.4804L14.2924 27.561L14.5573 27.4807L14.2924 26.6044ZM14.2924 25.639C14.3235 25.628 14.3571 25.6161 14.3931 25.603C14.6381 25.514 14.993 25.3768 15.4209 25.1873C16.2794 24.8072 17.4183 24.2228 18.5516 23.4051C20.829 21.7618 22.9649 19.2714 22.9649 15.6788V5.54601H5.62008V15.6788C5.62008 19.2714 7.75594 21.7618 10.0334 23.4051C11.1665 24.2228 12.3056 24.8072 13.1639 25.1873C13.592 25.3768 13.9469 25.514 14.1919 25.603C14.2278 25.6161 14.2613 25.628 14.2924 25.639Z" fill="#049AEE"/>
</svg>
