<svg width="48" height="48" viewBox="0 0 48 48" fill="none" xmlns="http://www.w3.org/2000/svg">
<path fill-rule="evenodd" clip-rule="evenodd" d="M22.6963 25.9385C23.214 25.9385 23.6338 26.3582 23.6338 26.876C23.6338 27.1864 23.8973 27.7026 24.8547 28.197C25.7642 28.6666 27.0859 28.985 28.5973 28.985C30.1087 28.985 31.4308 28.6666 32.3405 28.197C33.2985 27.7025 33.5619 27.1861 33.5619 26.876C33.5619 26.3582 33.9817 25.9385 34.4994 25.9385C35.0172 25.9385 35.4369 26.3582 35.4369 26.876C35.4369 28.2477 34.379 29.2547 33.2007 29.863C31.9743 30.4961 30.3453 30.86 28.5973 30.86C26.8493 30.86 25.2205 30.4961 23.9944 29.863C22.8162 29.2546 21.7588 28.2476 21.7588 26.876C21.7588 26.3582 22.1785 25.9385 22.6963 25.9385Z" fill="#18181B"/>
<path fill-rule="evenodd" clip-rule="evenodd" d="M14.127 20.1865C14.6447 20.1865 15.0645 20.6063 15.0645 21.124C15.0645 21.4349 15.3281 21.9511 16.2857 22.4454C17.1955 22.915 18.5176 23.2331 20.0291 23.2331C20.5469 23.2331 20.9666 23.6527 20.9666 24.1706C20.9666 24.6884 20.5469 25.1081 20.0291 25.1081C18.2813 25.1081 16.6523 24.7445 15.4258 24.1116C14.2472 23.5034 13.1895 22.4964 13.1895 21.124C13.1895 20.6063 13.6092 20.1865 14.127 20.1865Z" fill="#18181B"/>
<path fill-rule="evenodd" clip-rule="evenodd" d="M14.127 14.8594C14.6447 14.8594 15.0645 15.2791 15.0645 15.7969V26.453C15.0645 26.7639 15.3281 27.2801 16.2857 27.7744C17.1955 28.2439 18.5176 28.562 20.0291 28.562C20.5469 28.562 20.9666 28.9817 20.9666 29.4995C20.9666 30.0174 20.5469 30.437 20.0291 30.437C18.2813 30.437 16.6523 30.0735 15.4258 29.4406C14.2472 28.8324 13.1895 27.8254 13.1895 26.453V15.7969C13.1895 15.2791 13.6092 14.8594 14.127 14.8594Z" fill="#18181B"/>
<path fill-rule="evenodd" clip-rule="evenodd" d="M16.2858 14.4756C15.3279 14.9701 15.0645 15.4864 15.0645 15.7966C15.0645 16.1074 15.3281 16.6237 16.2857 17.1179C17.1955 17.5875 18.5176 17.9056 20.0291 17.9056C20.5469 17.9056 20.9666 18.3253 20.9666 18.8431C20.9666 19.3609 20.5469 19.7806 20.0291 19.7806C18.2813 19.7806 16.6523 19.4171 15.4258 18.7841C14.2472 18.1759 13.1895 17.1689 13.1895 15.7966C13.1895 14.4247 14.2474 13.4178 15.4257 12.8095C16.6521 12.1764 18.2812 11.8125 20.0291 11.8125C21.7771 11.8125 23.4061 12.1764 24.6325 12.8095C25.8109 13.4178 26.8688 14.4247 26.8688 15.7966C26.8688 16.3143 26.449 16.7341 25.9313 16.7341C25.4135 16.7341 24.9938 16.3143 24.9938 15.7966C24.9938 15.4864 24.7304 14.9701 23.7725 14.4756C22.8626 14.0059 21.5405 13.6875 20.0291 13.6875C18.5177 13.6875 17.1957 14.0059 16.2858 14.4756Z" fill="#18181B"/>
<path fill-rule="evenodd" clip-rule="evenodd" d="M22.6963 20.6113C23.214 20.6113 23.6338 21.0311 23.6338 21.5489V32.205C23.6338 32.516 23.8974 33.0323 24.8545 33.5264C25.764 33.9959 27.0858 34.314 28.5973 34.314C30.1088 34.314 31.4309 33.9959 32.3407 33.5264C33.2983 33.0321 33.5619 32.5159 33.5619 32.205V21.5489C33.5619 21.0311 33.9817 20.6113 34.4994 20.6113C35.0172 20.6113 35.4369 21.0311 35.4369 21.5489V32.205C35.4369 33.5773 34.3792 34.5843 33.2005 35.1925C31.9742 35.8255 30.3452 36.189 28.5973 36.189C26.8494 36.189 25.2207 35.8255 23.9945 35.1925C22.816 34.5841 21.7588 33.5771 21.7588 32.205V21.5489C21.7588 21.0311 22.1785 20.6113 22.6963 20.6113Z" fill="#18181B"/>
<path fill-rule="evenodd" clip-rule="evenodd" d="M24.8547 20.2275C23.8973 20.7219 23.6338 21.2382 23.6338 21.5485C23.6338 21.8589 23.8973 22.3751 24.8547 22.8695C25.7642 23.3391 27.0859 23.6576 28.5973 23.6576C30.1087 23.6576 31.4308 23.3391 32.3405 22.8695C33.2985 22.375 33.5619 21.8586 33.5619 21.5485C33.5619 21.2384 33.2985 20.722 32.3405 20.2275C31.4308 19.7579 30.1087 19.4395 28.5973 19.4395C27.0859 19.4395 25.7642 19.7578 24.8547 20.2275ZM23.9944 18.5615C25.2205 17.9284 26.8493 17.5645 28.5973 17.5645C30.3453 17.5645 31.9743 17.9284 33.2007 18.5614C34.379 19.1697 35.4369 20.1767 35.4369 21.5485C35.4369 22.9204 34.379 23.9273 33.2007 24.5356C31.9743 25.1686 30.3453 25.5326 28.5973 25.5326C26.8493 25.5326 25.2205 25.1686 23.9944 24.5355C22.8162 23.9271 21.7588 22.9201 21.7588 21.5485C21.7588 20.1769 22.8162 19.1699 23.9944 18.5615Z" fill="#18181B"/>
</svg>
