<svg width="48" height="48" viewBox="0 0 48 48" fill="none" xmlns="http://www.w3.org/2000/svg">
<path fill-rule="evenodd" clip-rule="evenodd" d="M24 15.75C19.4433 15.75 15.75 19.4433 15.75 24C15.75 28.5567 19.4433 32.25 24 32.25C28.5567 32.25 32.25 28.5567 32.25 24C32.25 19.4433 28.5567 15.75 24 15.75ZM14.25 24C14.25 18.6149 18.6149 14.25 24 14.25C29.3851 14.25 33.75 18.6149 33.75 24C33.75 29.3851 29.3851 33.75 24 33.75C18.6149 33.75 14.25 29.3851 14.25 24Z" fill="#52525B"/>
<path fill-rule="evenodd" clip-rule="evenodd" d="M22.5547 21.9592C22.5547 20.4135 23.808 19.1602 25.3538 19.1602H26.0835C26.4977 19.1602 26.8335 19.4959 26.8335 19.9102C26.8335 20.3244 26.4977 20.6602 26.0835 20.6602H25.3538C24.6364 20.6602 24.0547 21.2419 24.0547 21.9592V28.0919C24.0547 28.5061 23.7189 28.8419 23.3047 28.8419C22.8905 28.8419 22.5547 28.5061 22.5547 28.0919V21.9592Z" fill="#52525B"/>
<path fill-rule="evenodd" clip-rule="evenodd" d="M21.166 23.3828C21.166 22.9686 21.5018 22.6328 21.916 22.6328H26.0842C26.4984 22.6328 26.8342 22.9686 26.8342 23.3828C26.8342 23.797 26.4984 24.1328 26.0842 24.1328H21.916C21.5018 24.1328 21.166 23.797 21.166 23.3828Z" fill="#52525B"/>
</svg>
