<svg width="48" height="49" viewBox="0 0 48 49" fill="none" xmlns="http://www.w3.org/2000/svg">
<path d="M42.9431 29.9541C42.9235 30.035 42.9012 30.1157 42.8764 30.1958C42.1596 32.5164 40.9415 34.9839 39.2554 37.5239C38.5641 38.6969 37.4635 39.5331 36.1475 39.8856C35.703 40.0051 35.2506 40.0638 34.8021 40.0638C33.9072 40.0638 33.024 39.8308 32.2289 39.3706C29.7692 37.9449 28.9252 34.7861 30.345 32.3264L33.4431 26.9567C34.8648 24.4951 38.0256 23.6491 40.4872 25.0669L40.7612 25.2244C40.7694 25.0123 40.7735 24.7994 40.7735 24.5859C40.7735 15.6814 33.5218 8.4375 24.6094 8.4375C15.7048 8.4375 8.46094 15.6814 8.46094 24.5859C8.46094 24.8014 8.46509 25.016 8.47341 25.23L8.76683 25.0632C9.95162 24.3778 11.344 24.1976 12.6717 24.5521C14.0015 24.9085 15.1118 25.7623 15.8012 26.9549L18.9012 32.3286C20.3191 34.7883 19.473 37.9471 17.0153 39.3688C16.2202 39.831 15.337 40.064 14.4421 40.064C13.9936 40.064 13.5412 40.0053 13.0967 39.8858C11.7807 39.5333 10.6801 38.6951 9.99275 37.5241C8.56773 35.3801 7.47625 33.289 6.7395 31.2921C5.9313 29.1596 5.52344 26.9042 5.52344 24.5859C5.52344 14.0618 14.0853 5.5 24.6094 5.5C35.1413 5.5 43.711 14.0618 43.711 24.5859C43.711 26.4223 43.4533 28.2194 42.9431 29.9541Z" fill="#049AEE"/>
<path d="M13.0923 39.886C13.5368 40.0054 13.9892 40.0642 14.4357 40.0642C15.3306 40.0642 16.2158 39.8292 17.0089 39.369C19.4706 37.9472 20.3147 34.7865 18.8929 32.3287L15.7948 26.957C14.373 24.4954 11.2123 23.6455 8.75848 25.0633L8.31589 25.316C6.58668 26.3186 5.78377 28.3259 6.36148 30.1961C7.07823 32.5128 8.29631 34.9803 9.98635 37.5262C10.6757 38.6972 11.7763 39.5335 13.0923 39.886Z" fill="#049AEE"/>
<path d="M32.2274 39.37C33.0225 39.8285 33.9057 40.0633 34.7987 40.0633C35.2492 40.0633 35.7015 40.0026 36.148 39.8833C37.4621 39.5306 38.5607 38.6944 39.25 37.5235C40.9362 34.9853 42.1562 32.5178 42.8749 30.1952C43.4526 28.3231 42.6477 26.3177 40.9166 25.3151L40.4838 25.0663C38.0222 23.6485 34.8614 24.4945 33.4397 26.9542L30.3416 32.3261C28.9218 34.7856 29.7658 37.9463 32.2274 39.37Z" fill="#049AEE"/>
</svg>
